<svg width="20" height="20" viewBox="0 0 20 20" fill="none" xmlns="http://www.w3.org/2000/svg">
<path d="M5.63337 4.03334L4.13337 2.54168L2.95837 3.71668L4.45004 5.20834L5.63337 4.03334ZM3.33337 8.75001H0.833374V10.4167H3.33337V8.75001ZM10.8334 0.458344H9.16671V2.91668H10.8334V0.458344ZM17.0417 3.71668L15.8667 2.54168L14.375 4.03334L15.55 5.20834L17.0417 3.71668ZM14.3667 15.1333L15.8584 16.6333L17.0334 15.4583L15.5334 13.9667L14.3667 15.1333ZM16.6667 8.75001V10.4167H19.1667V8.75001H16.6667ZM10 4.58334C7.24171 4.58334 5.00004 6.82501 5.00004 9.58334C5.00004 12.3417 7.24171 14.5833 10 14.5833C12.7584 14.5833 15 12.3417 15 9.58334C15 6.82501 12.7584 4.58334 10 4.58334ZM9.16671 18.7083H10.8334V16.25H9.16671V18.7083ZM2.95837 15.45L4.13337 16.625L5.62504 15.125L4.45004 13.95L2.95837 15.45Z" fill="#7888A6"/>
</svg>
