<svg width="20" height="20" viewBox="0 0 20 20" fill="none" xmlns="http://www.w3.org/2000/svg">
<g clip-path="url(#clip0)">
<path d="M14 16.2727C15.697 15.0606 16.7424 13.4394 17.1364 11.4091C16.0758 11.1667 15.0758 11.0454 14.1364 11.0454C13.6212 11.0454 13.1061 11.0909 12.5909 11.1818C13.1667 12.9091 13.6364 14.6061 14 16.2727ZM9.68182 17.5909C10.6212 17.5909 11.5152 17.4242 12.3636 17.0909C12 15.1818 11.5152 13.3485 10.9091 11.5909C9.42424 12.0758 8.10606 12.8636 6.95455 13.9545C6.25758 14.6212 5.66667 15.3333 5.18182 16.0909C6.51515 17.0909 8.01515 17.5909 9.68182 17.5909ZM2.13636 10.0454C2.13636 11.8636 2.72727 13.4697 3.90909 14.8636C4.48485 14.0151 5.18182 13.2121 6 12.4545C7.27273 11.303 8.69697 10.4697 10.2727 9.95454C10.1515 9.65151 10 9.31818 9.81818 8.95454C7.78788 9.5909 5.5 9.92424 2.95455 9.95454C2.56061 9.95454 2.28788 9.93939 2.13636 9.90908V10.0454ZM6.36364 3.22727C5.36364 3.71212 4.51515 4.39393 3.81818 5.27272C3.12121 6.15151 2.63636 7.12121 2.36364 8.18181C2.45455 8.21212 2.65152 8.22727 2.95455 8.22727H3.09091C5.21212 8.22727 7.19697 7.93939 9.04545 7.36363C8.16667 5.72727 7.27273 4.34848 6.36364 3.22727ZM9.68182 2.45454C9.19697 2.45454 8.66667 2.51515 8.09091 2.63636C9.06061 3.90909 9.92424 5.28787 10.6818 6.77272C12.2879 6.07575 13.5303 5.19696 14.4091 4.13636C13.0455 3.01515 11.4697 2.45454 9.68182 2.45454ZM15.6364 5.36363C14.5455 6.60605 13.1515 7.60605 11.4545 8.36363C11.5758 8.60605 11.7424 8.98484 11.9545 9.49999C12.6818 9.37878 13.4091 9.31818 14.1364 9.31818C15.1364 9.31818 16.1818 9.43939 17.2727 9.68181C17.1818 8.07575 16.6364 6.63636 15.6364 5.36363ZM9.70454 0.318176C12.3864 0.318176 14.6742 1.26515 16.5682 3.15909C18.4621 5.05302 19.4091 7.3409 19.4091 10.0227C19.4091 12.7045 18.4621 14.9924 16.5682 16.8864C14.6742 18.7803 12.3864 19.7273 9.70454 19.7273C7.02273 19.7273 4.73485 18.7803 2.84091 16.8864C0.94697 14.9924 0 12.7045 0 10.0227C0 7.3409 0.94697 5.05302 2.84091 3.15909C4.73485 1.26515 7.02273 0.318176 9.70454 0.318176Z" fill="#7888A6"/>
</g>
<defs>
<clipPath id="clip0">
<rect width="19.6364" height="20" fill="white"/>
</clipPath>
</defs>
</svg>
