<svg width="12" height="18" viewBox="0 0 12 18" fill="none" xmlns="http://www.w3.org/2000/svg">
<path fill-rule="evenodd" clip-rule="evenodd" d="M8.38426 2.09401C8.76969 0.878883 9.88935 0 11.2105 0V6.8061C11.2105 9.72969 8.88388 12.0997 6.01383 12.0997C3.14379 12.0997 0.817156 9.72969 0.817156 6.8061C0.817156 3.88251 3.14379 1.51247 6.01383 1.51247C6.86773 1.51247 7.67353 1.72226 8.38426 2.09401ZM6.01383 4.5374C4.78381 4.5374 3.78669 5.55313 3.78669 6.8061C3.78669 8.05907 4.78381 9.0748 6.01383 9.0748C7.24385 9.0748 8.24098 8.05907 8.24098 6.8061C8.24098 5.55313 7.24385 4.5374 6.01383 4.5374ZM2.99116 14.2952L11.0584 12.0933C11.4828 13.707 10.5427 15.3657 8.9586 15.7981L0.891381 18C0.466911 16.3863 1.40701 14.7276 2.99116 14.2952Z" fill="#7888A6"/>
</svg>
