<svg width="202" height="73" viewBox="0 0 202 73" fill="none" xmlns="http://www.w3.org/2000/svg">
<mask id="mask0" mask-type="alpha" maskUnits="userSpaceOnUse" x="0" y="0" width="202" height="73">
<path d="M1 5C1 2.79087 2.79086 1 5 1H197C199.209 1 201 2.79086 201 5V71.5882H1V5Z" fill="white" stroke="#D8DDE6"/>
</mask>
<g mask="url(#mask0)">
<path d="M-18 -2C-18 -4.20914 -16.2091 -6 -14 -6H216C218.209 -6 220 -4.20914 220 -2V78H-18V-2Z" fill="#292F3A" stroke="#D8DDE6"/>
<rect x="147.905" y="44.683" width="15.2941" height="55.0131" transform="rotate(-90 147.905 44.683)" fill="#546373"/>
<circle cx="86.5" cy="34.5" r="63.5" stroke="#546373" stroke-width="2" stroke-dasharray="4 4"/>
<ellipse cx="86.5" cy="35" rx="63.5" ry="27" stroke="#546373" stroke-width="2"/>
<ellipse opacity="0.3" cx="86.5" cy="35" rx="63.5" ry="27" fill="#546373"/>
<circle cx="150.17" cy="37.1169" r="7.41274" fill="white"/>
<circle cx="127.169" cy="53.764" r="10.1695" fill="white"/>
<circle cx="87" cy="35" r="26" fill="#58DAC1"/>
<path d="M-9 52L-9 37.5L46 37.5L46 52L-9 52Z" fill="#546373"/>
<circle cx="46.4127" cy="44.764" r="7.41274" fill="white"/>
</g>
<path d="M87.3362 23C85.0742 23 83.3013 23.6635 81.9869 24.9904C80.6419 26.3173 80 28.1497 80 30.4876H83.4847C83.4847 29.1291 83.7293 28.0865 84.2489 27.3599C84.8603 26.5069 85.8079 26.0962 87.1223 26.0962C88.1616 26.0962 88.9869 26.3805 89.5677 26.9808C90.1179 27.581 90.4236 28.4025 90.4236 29.4451C90.4236 30.2349 90.1485 30.9931 89.5983 31.6882L89.2314 32.1305C87.2445 33.9629 86.0524 35.2898 85.655 36.1429C85.2271 36.9959 85.0437 38.0385 85.0437 39.239V39.6813H88.559V39.239C88.559 38.4808 88.7118 37.7857 89.0175 37.1538C89.2926 36.5852 89.69 36.0481 90.2402 35.6058C91.7074 34.2788 92.5939 33.4258 92.869 33.1099C93.6026 32.0989 94 30.8036 94 29.2239C94 27.2967 93.3886 25.7802 92.1659 24.6745C90.9432 23.5371 89.3231 23 87.3362 23ZM86.786 41.2294C86.1135 41.2294 85.5633 41.4506 85.1354 41.8929C84.6463 42.3352 84.4323 42.9038 84.4323 43.5989C84.4323 44.294 84.6463 44.8626 85.1354 45.3049C85.5633 45.7473 86.1135 46 86.786 46C87.4585 46 88.0087 45.7788 88.4978 45.3365C88.9258 44.8942 89.1703 44.294 89.1703 43.5989C89.1703 42.9038 88.9258 42.3352 88.4978 41.8929C88.0393 41.4506 87.4585 41.2294 86.786 41.2294Z" fill="white"/>
</svg>
