<svg width="202" height="73" viewBox="0 0 202 73" fill="none" xmlns="http://www.w3.org/2000/svg">
<mask id="mask0" mask-type="alpha" maskUnits="userSpaceOnUse" x="0" y="0" width="202" height="73">
<path d="M1 5C1 2.79087 2.79086 1 5 1H197C199.209 1 201 2.79086 201 5V71.5882H1V5Z" fill="white" stroke="#D8DDE6"/>
</mask>
<g mask="url(#mask0)">
<path d="M-11 -1C-11 -3.20914 -9.20914 -5 -7 -5H209C211.209 -5 213 -3.20914 213 -1V112H-11V-1Z" fill="#292F3A" stroke="#D8DDE6"/>
<rect x="-49" y="11" width="257" height="38" stroke="#546373" stroke-width="2" stroke-dasharray="4 4"/>
<rect x="112" y="-1" width="65" height="90" stroke="#546373" stroke-width="2"/>
<path d="M161.919 29.6397C161.899 34.3128 160.035 38.7891 156.731 42.0943C153.427 45.3998 148.951 47.2664 144.278 47.2877C134.6 47.2867 126.64 39.3265 126.64 29.6397C126.64 19.9535 134.599 12.0011 144.277 12C148.95 12.0191 153.427 13.8839 156.731 17.1882C160.035 20.4921 161.899 24.9675 161.919 29.6397ZM108 87.1163C108 80.6298 111.969 73.9027 118.575 68.7559C125.162 63.6236 134.267 60.1567 144.279 60.1567C154.292 60.1567 163.397 63.6236 169.984 68.7559C176.59 73.9027 180.559 80.6298 180.559 87.1163V90.7804H108V87.1163Z" stroke="#546373" stroke-width="2"/>
<path d="M77.9191 29.7787C77.8995 34.717 75.9296 39.4475 72.4385 42.9402C68.9473 46.4329 64.2177 48.4049 59.2794 48.4267C49.0483 48.4267 40.6397 40.0181 40.6397 29.7787C40.6397 19.5393 49.0483 11.139 59.2794 11.139C64.2169 11.1586 68.9466 13.1287 72.438 16.6201C75.9293 20.1115 77.8995 24.8412 77.9191 29.7787ZM22 87.2553C22 73.4702 38.8006 59.2957 59.2794 59.2957C79.7582 59.2957 96.5588 73.4702 96.5588 87.2553V91.9194H22V87.2553Z" fill="#292F3A"/>
<path d="M97.5878 29.7787C97.5682 34.717 95.5983 39.4475 92.1072 42.9402C88.616 46.4329 83.8864 48.4049 78.9481 48.4267C68.717 48.4267 60.3084 40.0181 60.3084 29.7787C60.3084 19.5393 68.717 11.139 78.9481 11.139C83.8856 11.1586 88.6153 13.1287 92.1067 16.6201C95.598 20.1115 97.5682 24.8412 97.5878 29.7787ZM41.6687 87.2553C41.6687 73.4702 58.4693 59.2957 78.9481 59.2957C99.4269 59.2957 116.227 73.4702 116.227 87.2553V91.9194H41.6687V87.2553Z" fill="#546373"/>
<path d="M77.9191 29.7787C77.8995 34.717 75.9296 39.4475 72.4385 42.9402C68.9473 46.4329 64.2177 48.4049 59.2794 48.4267C49.0483 48.4267 40.6397 40.0181 40.6397 29.7787C40.6397 19.5393 49.0483 11.139 59.2794 11.139C64.2169 11.1586 68.9466 13.1287 72.438 16.6201C75.9293 20.1115 77.8995 24.8412 77.9191 29.7787ZM22 87.2553C22 73.4702 38.8006 59.2957 59.2794 59.2957C79.7582 59.2957 96.5588 73.4702 96.5588 87.2553V91.9194H22V87.2553Z" fill="#58DAC1"/>
<path fill-rule="evenodd" clip-rule="evenodd" d="M72.4383 42.9402C75.9295 39.4475 77.8993 34.717 77.919 29.7787C77.8993 24.8412 75.9292 20.1115 72.4378 16.6201C71.4244 15.6067 70.3066 14.7214 69.1096 13.9748C63.8396 17.28 60.3084 23.1432 60.3084 29.7787C60.3084 36.4138 63.8391 42.2801 69.1086 45.5879C70.3061 44.8406 71.4245 43.9546 72.4383 42.9402ZM41.6687 91.9194L96.5587 91.9194V87.2553C96.5587 75.7585 84.8729 63.9909 69.1137 60.4009C53.3544 63.9909 41.6687 75.7585 41.6687 87.2553V91.9194Z" fill="white"/>
</g>
</svg>
