<svg width="690" height="601" viewBox="0 0 690 601" fill="none" xmlns="http://www.w3.org/2000/svg">
<path d="M345 104V40V0L0 197.5V302.5L345 104Z" fill="#546373"/>
<path d="M0 302.5L345 104V233L111 366.957L0 302.5Z" fill="#37414E"/>
<path d="M345 399.5V233L111 366.957L255.5 450.995L345 399.5Z" fill="#112134"/>
<path d="M345 399.5V450.995H255.5L345 399.5Z" fill="#000C17"/>
<path d="M344.5 399.5V450.995H434L344.5 399.5Z" fill="#123B3D"/>
<path d="M0 601V434.5L111 366.957L255.5 450.995L0 601Z" fill="#04101F"/>
<path d="M690 600.543V434.043L579 366.5L434.5 450.538L690 600.543Z" fill="#194248"/>
<path d="M344.5 399.5V233L578.5 366.957L434 450.995L344.5 399.5Z" fill="#26595F"/>
<path d="M689.5 302.5L344.5 104V233L578.5 366.957L689.5 302.5Z" fill="#37414E"/>
<path d="M344.5 104V40V0L689.5 197.5V302.5L344.5 104Z" fill="#A0E7D9"/>
<path fill-rule="evenodd" clip-rule="evenodd" d="M435.967 52.0211L345.095 0L344.5 0.34058V39.6594V103.659L345.359 104.154L435.967 52.0211Z" fill="#77CABB"/>
</svg>
