<svg width="202" height="73" viewBox="0 0 202 73" fill="none" xmlns="http://www.w3.org/2000/svg">
<mask id="mask0" mask-type="alpha" maskUnits="userSpaceOnUse" x="0" y="0" width="202" height="73">
<path d="M201 72.0882H201.5V71.5882V5C201.5 2.51472 199.485 0.5 197 0.5H5C2.51472 0.5 0.5 2.51472 0.5 5V71.5882V72.0882H1H201Z" fill="white" stroke="#D8DDE6"/>
</mask>
<g mask="url(#mask0)">
<path d="M217 75.5H217.5V75V-15C217.5 -17.4853 215.485 -19.5 213 -19.5H-11C-13.4853 -19.5 -15.5 -17.4853 -15.5 -15V75V75.5H-15H217Z" fill="#292F3A" stroke="#D8DDE6"/>
<rect x="113" y="47" width="18" height="27" fill="#58DAC1"/>
<rect x="90" y="47" width="18" height="13" fill="#546373"/>
<rect x="90" y="65" width="18" height="13" fill="#546373"/>
<path d="M144 17V84.5" stroke="#546373" stroke-width="2"/>
<path d="M77 17V84.5" stroke="#546373" stroke-width="2"/>
<path d="M1 37L201 37" stroke="#546373" stroke-width="2" stroke-dasharray="4 4"/>
<circle cx="38" cy="10" r="2" fill="#546373"/>
<circle cx="45" cy="10" r="2" fill="#546373"/>
<circle cx="52" cy="10" r="2" fill="#546373"/>
<rect x="37" y="16" width="127" height="85" stroke="#546373" stroke-width="2"/>
<rect opacity="0.3" x="37" y="16" width="127" height="23" fill="#546373"/>
</g>
<rect x="44" y="23" width="26" height="26" rx="13" fill="#58DAC1"/>
<rect x="37" y="16" width="40" height="40" rx="20" stroke="#546373" stroke-width="2"/>
<path d="M144 17L163.5 36.5" stroke="#546373" stroke-width="2"/>
<path d="M144 36.5L163.5 17" stroke="#546373" stroke-width="2"/>
<path d="M49 36H65" stroke="white" stroke-width="3"/>
<path d="M57 44L57 28" stroke="white" stroke-width="3"/>
</svg>
