<svg width="113" height="28" viewBox="0 0 113 28" fill="none" xmlns="http://www.w3.org/2000/svg">
<mask id="mask0" mask-type="alpha" maskUnits="userSpaceOnUse" x="0" y="0" width="113" height="28">
<rect width="112.945" height="28" fill="#C4C4C4"/>
</mask>
<g mask="url(#mask0)">
<mask id="mask1" mask-type="alpha" maskUnits="userSpaceOnUse" x="-1" y="0" width="26" height="28">
<path d="M12.1091 0L24.2335 7V21L12.1091 28L-0.0152245 21V7L12.1091 0Z" fill="#5DBEA7"/>
</mask>
<g mask="url(#mask1)">
<g style="mix-blend-mode:darken">
<path d="M12.1091 0L24.2335 7V21L12.1091 28L-0.0152245 21V7L12.1091 0Z" fill="#5DBEA7"/>
<mask id="mask2" mask-type="alpha" maskUnits="userSpaceOnUse" x="-1" y="0" width="26" height="28">
<path d="M12.1091 0L24.2335 7V21L12.1091 28L-0.0152245 21V7L12.1091 0Z" fill="#5DBEA7"/>
</mask>
<g mask="url(#mask2)">
<path d="M24.2335 21V7L-0.0152588 21L12.1091 28L24.2335 21Z" fill="#8EE2CE"/>
</g>
<mask id="mask3" mask-type="alpha" maskUnits="userSpaceOnUse" x="-1" y="0" width="26" height="28">
<path d="M12.1091 0L24.2335 7V21L12.1091 28L-0.0152245 21V7L12.1091 0Z" fill="#D489F7"/>
</mask>
<g mask="url(#mask3)">
<path d="M12.1091 0L12.1091 14.0364L24.2335 21L12.1091 28L-0.0152588 21V7L12.1091 0Z" fill="#33404A"/>
</g>
<mask id="mask4" mask-type="alpha" maskUnits="userSpaceOnUse" x="-1" y="0" width="26" height="28">
<path d="M12.1091 0L12.1091 14.0364L24.2335 21L12.1091 28L-0.0152588 21V7L12.1091 0Z" fill="#11161A"/>
</mask>
<g mask="url(#mask4)">
<path d="M24.2335 21L12.1091 14.0364L-0.0152588 21L12.1091 28L24.2335 21Z" fill="#11161A"/>
</g>
</g>
<g style="mix-blend-mode:screen">
<path d="M12.1091 -10.3274L24.2335 -3.32739V10.6726L12.1091 17.6726L-0.0152245 10.6726V-3.32739L12.1091 -10.3274Z" fill="#5DBEA7"/>
<mask id="mask5" mask-type="alpha" maskUnits="userSpaceOnUse" x="-1" y="-11" width="26" height="29">
<path d="M12.1091 -10.3274L24.2335 -3.32739V10.6726L12.1091 17.6726L-0.0152245 10.6726V-3.32739L12.1091 -10.3274Z" fill="#5DBEA7"/>
</mask>
<g mask="url(#mask5)">
<path d="M24.2335 10.6726V-3.32739L-0.0152588 10.6726L12.1091 17.6726L24.2335 10.6726Z" fill="#8EE2CE"/>
</g>
<mask id="mask6" mask-type="alpha" maskUnits="userSpaceOnUse" x="-1" y="-11" width="26" height="29">
<path d="M12.1091 -10.3274L24.2335 -3.32739V10.6726L12.1091 17.6726L-0.0152245 10.6726V-3.32739L12.1091 -10.3274Z" fill="#D489F7"/>
</mask>
<g mask="url(#mask6)">
<path d="M12.1091 -10.3274L12.1091 3.70897L24.2335 10.6726L12.1091 17.6726L-0.0152588 10.6726V-3.32739L12.1091 -10.3274Z" fill="#33404A"/>
</g>
<mask id="mask7" mask-type="alpha" maskUnits="userSpaceOnUse" x="-1" y="-11" width="26" height="29">
<path d="M12.1091 -10.3274L12.1091 3.70897L24.2335 10.6726L12.1091 17.6726L-0.0152588 10.6726V-3.32739L12.1091 -10.3274Z" fill="#11161A"/>
</mask>
<g mask="url(#mask7)">
<path d="M24.2335 10.6726L12.1091 3.70898L-0.0152588 10.6726L12.1091 17.6726L24.2335 10.6726Z" fill="#11161A"/>
</g>
</g>
<g style="mix-blend-mode:soft-light">
<path d="M12.1091 8.21826L24.2335 15.2183V29.2183L12.1091 36.2183L-0.0152245 29.2183V15.2183L12.1091 8.21826Z" fill="#5DBEA7"/>
<mask id="mask8" mask-type="alpha" maskUnits="userSpaceOnUse" x="-1" y="8" width="26" height="29">
<path d="M12.1091 8.21826L24.2335 15.2183V29.2183L12.1091 36.2183L-0.0152245 29.2183V15.2183L12.1091 8.21826Z" fill="#5DBEA7"/>
</mask>
<g mask="url(#mask8)">
<path d="M24.2335 29.2183V15.2183L-0.0152588 29.2183L12.1091 36.2183L24.2335 29.2183Z" fill="#8EE2CE"/>
</g>
<mask id="mask9" mask-type="alpha" maskUnits="userSpaceOnUse" x="-1" y="8" width="26" height="29">
<path d="M12.1091 8.21826L24.2335 15.2183V29.2183L12.1091 36.2183L-0.0152245 29.2183V15.2183L12.1091 8.21826Z" fill="#D489F7"/>
</mask>
<g mask="url(#mask9)">
<path d="M12.1091 8.21826L12.1091 22.2546L24.2335 29.2183L12.1091 36.2183L-0.0152588 29.2183V15.2183L12.1091 8.21826Z" fill="#33404A"/>
</g>
<mask id="mask10" mask-type="alpha" maskUnits="userSpaceOnUse" x="-1" y="8" width="26" height="29">
<path d="M12.1091 8.21826L12.1091 22.2546L24.2335 29.2183L12.1091 36.2183L-0.0152588 29.2183V15.2183L12.1091 8.21826Z" fill="#11161A"/>
</mask>
<g mask="url(#mask10)">
<path d="M24.2335 29.2183L12.1091 22.2546L-0.0152588 29.2183L12.1091 36.2183L24.2335 29.2183Z" fill="#11161A"/>
</g>
</g>
</g>
<path d="M37.2119 12.1582C37.0325 11.8277 36.7729 11.5776 36.433 11.4076C36.1026 11.2283 35.7108 11.1386 35.2577 11.1386C34.4741 11.1386 33.8463 11.3982 33.3742 11.9174C32.9022 12.4272 32.6662 13.1117 32.6662 13.9708C32.6662 14.8865 32.9116 15.604 33.4026 16.1233C33.9029 16.6331 34.5874 16.888 35.4559 16.888C36.0507 16.888 36.551 16.7369 36.957 16.4348C37.3724 16.1327 37.6745 15.6984 37.8633 15.132H34.7903V13.3477H40.0583V15.5993C39.8789 16.2035 39.5721 16.7652 39.1378 17.2845C38.713 17.8037 38.1701 18.2238 37.5093 18.5448C36.8484 18.8658 36.1026 19.0263 35.2718 19.0263C34.29 19.0263 33.412 18.8139 32.6379 18.3891C31.8732 17.9548 31.2737 17.3553 30.8394 16.5906C30.4146 15.8259 30.2021 14.9526 30.2021 13.9708C30.2021 12.989 30.4146 12.1157 30.8394 11.351C31.2737 10.5769 31.8732 9.97737 32.6379 9.55253C33.4026 9.11826 34.2758 8.90112 35.2577 8.90112C36.4472 8.90112 37.4479 9.18907 38.2598 9.76495C39.0811 10.3408 39.624 11.1386 39.8883 12.1582H37.2119Z" fill="#1B3142"/>
<path d="M47.4888 12.9795V14.9904H41.258V12.9795H47.4888Z" fill="#1B3142"/>
<path d="M55.6326 13.8575C56.2085 13.9802 56.6711 14.2682 57.0204 14.7213C57.3697 15.165 57.5443 15.6748 57.5443 16.2507C57.5443 17.0815 57.2517 17.7424 56.6663 18.2333C56.0905 18.7148 55.2833 18.9555 54.2448 18.9555H49.6141V9.01441H54.089C55.0992 9.01441 55.8875 9.24571 56.4539 9.70831C57.0298 10.1709 57.3177 10.7987 57.3177 11.5917C57.3177 12.1771 57.162 12.6633 56.8504 13.0503C56.5483 13.4374 56.1424 13.7065 55.6326 13.8575ZM52.0357 13.0362H53.6217C54.0182 13.0362 54.3203 12.9512 54.528 12.7813C54.7452 12.6019 54.8537 12.3423 54.8537 12.0024C54.8537 11.6625 54.7452 11.4029 54.528 11.2235C54.3203 11.0442 54.0182 10.9545 53.6217 10.9545H52.0357V13.0362ZM53.82 17.0013C54.2259 17.0013 54.5375 16.9116 54.7546 16.7322C54.9812 16.5434 55.0945 16.2743 55.0945 15.925C55.0945 15.5757 54.9764 15.3019 54.7404 15.1037C54.5139 14.9054 54.1976 14.8063 53.7916 14.8063H52.0357V17.0013H53.82Z" fill="#1B3142"/>
<path d="M61.3704 17.0862H64.5424V18.9555H58.9488V9.01441H61.3704V17.0862Z" fill="#1B3142"/>
<path d="M70.3989 19.0546C69.4643 19.0546 68.6052 18.8375 67.8216 18.4032C67.0475 17.9689 66.4291 17.3647 65.9665 16.5906C65.5134 15.807 65.2868 14.929 65.2868 13.9566C65.2868 12.9842 65.5134 12.111 65.9665 11.3368C66.4291 10.5627 67.0475 9.95849 67.8216 9.52421C68.6052 9.08994 69.4643 8.8728 70.3989 8.8728C71.3336 8.8728 72.188 9.08994 72.9621 9.52421C73.7457 9.95849 74.3593 10.5627 74.803 11.3368C75.2562 12.111 75.4828 12.9842 75.4828 13.9566C75.4828 14.929 75.2562 15.807 74.803 16.5906C74.3499 17.3647 73.7362 17.9689 72.9621 18.4032C72.188 18.8375 71.3336 19.0546 70.3989 19.0546ZM70.3989 16.8455C71.192 16.8455 71.8245 16.5812 72.2965 16.0525C72.778 15.5238 73.0187 14.8252 73.0187 13.9566C73.0187 13.0786 72.778 12.38 72.2965 11.8608C71.8245 11.3321 71.192 11.0678 70.3989 11.0678C69.5965 11.0678 68.9545 11.3274 68.473 11.8466C68.001 12.3659 67.765 13.0692 67.765 13.9566C67.765 14.8346 68.001 15.538 68.473 16.0666C68.9545 16.5859 69.5965 16.8455 70.3989 16.8455Z" fill="#1B3142"/>
<path d="M76.4193 13.9708C76.4193 12.989 76.6317 12.1157 77.0565 11.351C77.4814 10.5769 78.0714 9.97737 78.8267 9.55253C79.5914 9.11826 80.4552 8.90112 81.4181 8.90112C82.5982 8.90112 83.6084 9.21267 84.4486 9.83576C85.2888 10.4588 85.8506 11.3085 86.1338 12.3848H83.4715C83.2732 11.9694 82.99 11.6531 82.6218 11.436C82.2631 11.2188 81.8524 11.1103 81.3898 11.1103C80.644 11.1103 80.0398 11.3699 79.5772 11.8891C79.1146 12.4084 78.8833 13.1022 78.8833 13.9708C78.8833 14.8393 79.1146 15.5332 79.5772 16.0525C80.0398 16.5717 80.644 16.8313 81.3898 16.8313C81.8524 16.8313 82.2631 16.7228 82.6218 16.5056C82.99 16.2885 83.2732 15.9722 83.4715 15.5568H86.1338C85.8506 16.6331 85.2888 17.4827 84.4486 18.1058C83.6084 18.7195 82.5982 19.0263 81.4181 19.0263C80.4552 19.0263 79.5914 18.8139 78.8267 18.3891C78.0714 17.9548 77.4814 17.3553 77.0565 16.5906C76.6317 15.8259 76.4193 14.9526 76.4193 13.9708Z" fill="#1B3142"/>
<path d="M93.3803 18.9555L90.0383 14.5656V18.9555H87.6167V9.01441H90.0383V13.376L93.3519 9.01441H96.1983L92.3465 13.8858L96.3399 18.9555H93.3803Z" fill="#1B3142"/>
<path d="M102.871 9.01441V14.9621C102.871 15.5568 103.017 16.0147 103.31 16.3357C103.602 16.6567 104.032 16.8172 104.598 16.8172C105.165 16.8172 105.599 16.6567 105.901 16.3357C106.203 16.0147 106.354 15.5568 106.354 14.9621V9.01441H108.776V14.9479C108.776 15.8353 108.587 16.5859 108.209 17.1995C107.832 17.8132 107.322 18.2758 106.68 18.5873C106.048 18.8988 105.339 19.0546 104.556 19.0546C103.772 19.0546 103.069 18.9036 102.446 18.6015C101.832 18.2899 101.346 17.8273 100.987 17.2137C100.629 16.5906 100.449 15.8353 100.449 14.9479V9.01441H102.871Z" fill="#1B3142"/>
<path d="M112.898 9.01441V18.9555H110.476V9.01441H112.898Z" fill="#1B3142"/>
</g>
</svg>
