<svg width="113" height="28" viewBox="0 0 113 28" fill="none" xmlns="http://www.w3.org/2000/svg">
<mask id="mask0" mask-type="alpha" maskUnits="userSpaceOnUse" x="0" y="0" width="113" height="28">
<rect width="112.945" height="28" fill="#C4C4C4"/>
</mask>
<g mask="url(#mask0)">
<mask id="mask1" mask-type="alpha" maskUnits="userSpaceOnUse" x="-1" y="0" width="26" height="28">
<path d="M12.1091 0L24.2335 7V21L12.1091 28L-0.0152245 21V7L12.1091 0Z" fill="#5DBEA7"/>
</mask>
<g mask="url(#mask1)">
<g style="mix-blend-mode:darken">
<path d="M12.1091 0.00012207L24.2335 7.00012V21.0001L12.1091 28.0001L-0.0152245 21.0001V7.00012L12.1091 0.00012207Z" fill="#5DBEA7"/>
<mask id="mask2" mask-type="alpha" maskUnits="userSpaceOnUse" x="-1" y="0" width="26" height="29">
<path d="M12.1091 0.00012207L24.2335 7.00012V21.0001L12.1091 28.0001L-0.0152245 21.0001V7.00012L12.1091 0.00012207Z" fill="#5DBEA7"/>
</mask>
<g mask="url(#mask2)">
<path d="M24.2333 21.0001V7.00012L-0.0153809 21.0001L12.109 28.0001L24.2333 21.0001Z" fill="#8EE2CE"/>
</g>
<mask id="mask3" mask-type="alpha" maskUnits="userSpaceOnUse" x="-1" y="0" width="26" height="29">
<path d="M12.1091 0.00012207L24.2335 7.00012V21.0001L12.1091 28.0001L-0.0152245 21.0001V7.00012L12.1091 0.00012207Z" fill="#D489F7"/>
</mask>
<g mask="url(#mask3)">
<path d="M12.109 0.00012207L12.109 14.0365L24.2333 21.0001L12.109 28.0001L-0.0153809 21.0001V7.00012L12.109 0.00012207Z" fill="#33404A"/>
</g>
<mask id="mask4" mask-type="alpha" maskUnits="userSpaceOnUse" x="-1" y="0" width="26" height="29">
<path d="M12.109 0.00012207L12.109 14.0365L24.2333 21.0001L12.109 28.0001L-0.0153809 21.0001V7.00012L12.109 0.00012207Z" fill="#11161A"/>
</mask>
<g mask="url(#mask4)">
<path d="M24.2333 21.0001L12.109 14.0365L-0.0153809 21.0001L12.109 28.0001L24.2333 21.0001Z" fill="#11161A"/>
</g>
</g>
<g style="mix-blend-mode:screen">
<path d="M12.1091 -10.3273L24.2335 -3.32727V10.6727L12.1091 17.6727L-0.0152245 10.6727V-3.32727L12.1091 -10.3273Z" fill="#5DBEA7"/>
<mask id="mask5" mask-type="alpha" maskUnits="userSpaceOnUse" x="-1" y="-11" width="26" height="29">
<path d="M12.1091 -10.3273L24.2335 -3.32727V10.6727L12.1091 17.6727L-0.0152245 10.6727V-3.32727L12.1091 -10.3273Z" fill="#5DBEA7"/>
</mask>
<g mask="url(#mask5)">
<path d="M24.2333 10.6729V-3.32715L-0.0153809 10.6729L12.109 17.6729L24.2333 10.6729Z" fill="#8EE2CE"/>
</g>
<mask id="mask6" mask-type="alpha" maskUnits="userSpaceOnUse" x="-1" y="-11" width="26" height="29">
<path d="M12.1091 -10.3273L24.2335 -3.32727V10.6727L12.1091 17.6727L-0.0152245 10.6727V-3.32727L12.1091 -10.3273Z" fill="#D489F7"/>
</mask>
<g mask="url(#mask6)">
<path d="M12.109 -10.3271L12.109 3.70921L24.2333 10.6729L12.109 17.6729L-0.0153809 10.6729V-3.32715L12.109 -10.3271Z" fill="#33404A"/>
</g>
<mask id="mask7" mask-type="alpha" maskUnits="userSpaceOnUse" x="-1" y="-11" width="26" height="29">
<path d="M12.109 -10.3271L12.109 3.70921L24.2333 10.6729L12.109 17.6729L-0.0153809 10.6729V-3.32715L12.109 -10.3271Z" fill="#11161A"/>
</mask>
<g mask="url(#mask7)">
<path d="M24.2333 10.6728L12.109 3.70921L-0.0153809 10.6728L12.109 17.6728L24.2333 10.6728Z" fill="#11161A"/>
</g>
</g>
<g style="mix-blend-mode:soft-light">
<path d="M12.1091 8.21831L24.2335 15.2183V29.2183L12.1091 36.2183L-0.0152245 29.2183V15.2183L12.1091 8.21831Z" fill="#5DBEA7"/>
<mask id="mask8" mask-type="alpha" maskUnits="userSpaceOnUse" x="-1" y="8" width="26" height="29">
<path d="M12.1091 8.21831L24.2335 15.2183V29.2183L12.1091 36.2183L-0.0152245 29.2183V15.2183L12.1091 8.21831Z" fill="#5DBEA7"/>
</mask>
<g mask="url(#mask8)">
<path d="M24.2333 29.2182V15.2182L-0.0153809 29.2182L12.109 36.2182L24.2333 29.2182Z" fill="#8EE2CE"/>
</g>
<mask id="mask9" mask-type="alpha" maskUnits="userSpaceOnUse" x="-1" y="8" width="26" height="29">
<path d="M12.1091 8.21831L24.2335 15.2183V29.2183L12.1091 36.2183L-0.0152245 29.2183V15.2183L12.1091 8.21831Z" fill="#D489F7"/>
</mask>
<g mask="url(#mask9)">
<path d="M12.109 8.21823L12.109 22.2546L24.2333 29.2182L12.109 36.2182L-0.0153809 29.2182V15.2182L12.109 8.21823Z" fill="#33404A"/>
</g>
<mask id="mask10" mask-type="alpha" maskUnits="userSpaceOnUse" x="-1" y="8" width="26" height="29">
<path d="M12.109 8.21823L12.109 22.2546L24.2333 29.2182L12.109 36.2182L-0.0153809 29.2182V15.2182L12.109 8.21823Z" fill="#11161A"/>
</mask>
<g mask="url(#mask10)">
<path d="M24.2333 29.2182L12.109 22.2546L-0.0153809 29.2182L12.109 36.2182L24.2333 29.2182Z" fill="#11161A"/>
</g>
</g>
</g>
<path d="M37.2119 12.1581C37.0325 11.8277 36.7729 11.5775 36.433 11.4076C36.1026 11.2282 35.7108 11.1385 35.2577 11.1385C34.4741 11.1385 33.8463 11.3981 33.3742 11.9174C32.9022 12.4272 32.6662 13.1116 32.6662 13.9707C32.6662 14.8865 32.9116 15.604 33.4026 16.1232C33.9029 16.633 34.5874 16.8879 35.4559 16.8879C36.0507 16.8879 36.551 16.7368 36.957 16.4347C37.3724 16.1326 37.6745 15.6984 37.8633 15.1319H34.7903V13.3476H40.0583V15.5992C39.8789 16.2034 39.5721 16.7652 39.1378 17.2844C38.713 17.8036 38.1701 18.2238 37.5093 18.5447C36.8484 18.8657 36.1026 19.0262 35.2718 19.0262C34.29 19.0262 33.412 18.8138 32.6379 18.389C31.8732 17.9547 31.2737 17.3552 30.8394 16.5905C30.4146 15.8258 30.2021 14.9526 30.2021 13.9707C30.2021 12.9889 30.4146 12.1156 30.8394 11.3509C31.2737 10.5768 31.8732 9.97729 32.6379 9.55246C33.4026 9.11818 34.2758 8.90105 35.2577 8.90105C36.4472 8.90105 37.4479 9.18899 38.2598 9.76487C39.0811 10.3408 39.624 11.1385 39.8883 12.1581H37.2119Z" fill="#D0D2D7"/>
<path d="M47.4888 12.9794V14.9903H41.258V12.9794H47.4888Z" fill="#D0D2D7"/>
<path d="M55.6326 13.8574C56.2085 13.9802 56.6711 14.2681 57.0204 14.7213C57.3697 15.165 57.5443 15.6748 57.5443 16.2507C57.5443 17.0814 57.2517 17.7423 56.6663 18.2332C56.0905 18.7147 55.2833 18.9554 54.2448 18.9554H49.6141V9.01434H54.089C55.0992 9.01434 55.8875 9.24563 56.4539 9.70823C57.0298 10.1708 57.3177 10.7986 57.3177 11.5917C57.3177 12.177 57.162 12.6632 56.8504 13.0502C56.5483 13.4373 56.1424 13.7064 55.6326 13.8574ZM52.0357 13.0361H53.6217C54.0182 13.0361 54.3203 12.9511 54.528 12.7812C54.7452 12.6018 54.8537 12.3422 54.8537 12.0023C54.8537 11.6625 54.7452 11.4028 54.528 11.2235C54.3203 11.0441 54.0182 10.9544 53.6217 10.9544H52.0357V13.0361ZM53.82 17.0012C54.2259 17.0012 54.5375 16.9115 54.7546 16.7321C54.9812 16.5433 55.0945 16.2743 55.0945 15.9249C55.0945 15.5756 54.9764 15.3019 54.7404 15.1036C54.5139 14.9053 54.1976 14.8062 53.7916 14.8062H52.0357V17.0012H53.82Z" fill="#D0D2D7"/>
<path d="M61.3704 17.0862H64.5424V18.9554H58.9488V9.01434H61.3704V17.0862Z" fill="#D0D2D7"/>
<path d="M70.3989 19.0545C69.4643 19.0545 68.6052 18.8374 67.8216 18.4031C67.0475 17.9689 66.4291 17.3647 65.9665 16.5905C65.5134 15.8069 65.2868 14.9289 65.2868 13.9566C65.2868 12.9842 65.5134 12.1109 65.9665 11.3368C66.4291 10.5626 67.0475 9.95841 67.8216 9.52414C68.6052 9.08986 69.4643 8.87273 70.3989 8.87273C71.3336 8.87273 72.188 9.08986 72.9621 9.52414C73.7457 9.95841 74.3593 10.5626 74.803 11.3368C75.2562 12.1109 75.4828 12.9842 75.4828 13.9566C75.4828 14.9289 75.2562 15.8069 74.803 16.5905C74.3499 17.3647 73.7362 17.9689 72.9621 18.4031C72.188 18.8374 71.3336 19.0545 70.3989 19.0545ZM70.3989 16.8454C71.192 16.8454 71.8245 16.5811 72.2965 16.0524C72.778 15.5237 73.0187 14.8251 73.0187 13.9566C73.0187 13.0786 72.778 12.38 72.2965 11.8607C71.8245 11.332 71.192 11.0677 70.3989 11.0677C69.5965 11.0677 68.9545 11.3273 68.473 11.8466C68.001 12.3658 67.765 13.0691 67.765 13.9566C67.765 14.8345 68.001 15.5379 68.473 16.0666C68.9545 16.5858 69.5965 16.8454 70.3989 16.8454Z" fill="#D0D2D7"/>
<path d="M76.4193 13.9707C76.4193 12.9889 76.6317 12.1156 77.0565 11.3509C77.4814 10.5768 78.0714 9.97729 78.8267 9.55246C79.5914 9.11818 80.4552 8.90105 81.4181 8.90105C82.5982 8.90105 83.6084 9.21259 84.4486 9.83568C85.2888 10.4588 85.8506 11.3084 86.1338 12.3847H83.4715C83.2732 11.9693 82.99 11.653 82.6218 11.4359C82.2631 11.2187 81.8524 11.1102 81.3898 11.1102C80.644 11.1102 80.0398 11.3698 79.5772 11.889C79.1146 12.4083 78.8833 13.1022 78.8833 13.9707C78.8833 14.8393 79.1146 15.5332 79.5772 16.0524C80.0398 16.5716 80.644 16.8313 81.3898 16.8313C81.8524 16.8313 82.2631 16.7227 82.6218 16.5055C82.99 16.2884 83.2732 15.9721 83.4715 15.5568H86.1338C85.8506 16.633 85.2888 17.4827 84.4486 18.1058C83.6084 18.7194 82.5982 19.0262 81.4181 19.0262C80.4552 19.0262 79.5914 18.8138 78.8267 18.389C78.0714 17.9547 77.4814 17.3552 77.0565 16.5905C76.6317 15.8258 76.4193 14.9526 76.4193 13.9707Z" fill="#D0D2D7"/>
<path d="M93.3803 18.9554L90.0383 14.5655V18.9554H87.6167V9.01434H90.0383V13.376L93.3519 9.01434H96.1983L92.3465 13.8857L96.3399 18.9554H93.3803Z" fill="#D0D2D7"/>
<path d="M102.871 9.01434V14.962C102.871 15.5568 103.017 16.0146 103.31 16.3356C103.602 16.6566 104.032 16.8171 104.598 16.8171C105.165 16.8171 105.599 16.6566 105.901 16.3356C106.203 16.0146 106.354 15.5568 106.354 14.962V9.01434H108.776V14.9478C108.776 15.8353 108.587 16.5858 108.209 17.1994C107.832 17.8131 107.322 18.2757 106.68 18.5872C106.048 18.8988 105.339 19.0545 104.556 19.0545C103.772 19.0545 103.069 18.9035 102.446 18.6014C101.832 18.2898 101.346 17.8273 100.987 17.2136C100.629 16.5905 100.449 15.8353 100.449 14.9478V9.01434H102.871Z" fill="#D0D2D7"/>
<path d="M112.898 9.01434V18.9554H110.476V9.01434H112.898Z" fill="#D0D2D7"/>
</g>
</svg>
