<svg width="96" height="34" viewBox="0 0 96 34" fill="none" xmlns="http://www.w3.org/2000/svg">
<path d="M44.9668 14.8415C44.754 14.4496 44.4461 14.1528 44.0429 13.9512C43.651 13.7384 43.1862 13.6321 42.6487 13.6321C41.7192 13.6321 40.9745 13.94 40.4146 14.5559C39.8546 15.1607 39.5747 15.9726 39.5747 16.9916C39.5747 18.0779 39.8658 18.929 40.4482 19.5449C41.0417 20.1496 41.8536 20.452 42.8839 20.452C43.5894 20.452 44.1829 20.2728 44.6644 19.9145C45.1572 19.5561 45.5155 19.041 45.7395 18.3691H42.0944V16.2525H48.3432V18.9234C48.1304 19.6401 47.7664 20.3064 47.2513 20.9223C46.7474 21.5383 46.1035 22.0366 45.3196 22.4173C44.5357 22.7981 43.651 22.9885 42.6655 22.9885C41.5008 22.9885 40.4594 22.7365 39.5411 22.2326C38.634 21.7174 37.9229 21.0063 37.4078 20.0992C36.9038 19.1922 36.6519 18.1563 36.6519 16.9916C36.6519 15.827 36.9038 14.7911 37.4078 13.884C37.9229 12.9657 38.634 12.2546 39.5411 11.7507C40.4482 11.2356 41.484 10.978 42.6487 10.978C44.0597 10.978 45.2468 11.3196 46.2098 12.0027C47.1841 12.6858 47.828 13.6321 48.1416 14.8415H44.9668Z" fill="#D0D2D8"/>
<path d="M53.4366 13.4137V15.799H57.2833V18.0163H53.4366V20.6032H57.7872V22.9045H50.5642V11.1124H57.7872V13.4137H53.4366Z" fill="#D0D2D8"/>
<path d="M63.1544 13.4137V15.799H67.0011V18.0163H63.1544V20.6032H67.5051V22.9045H60.282V11.1124H67.5051V13.4137H63.1544Z" fill="#D0D2D8"/>
<path d="M77.2229 15.8158V18.2011H69.8318V15.8158H77.2229Z" fill="#D0D2D8"/>
<path d="M83.1959 11.1124V18.1675C83.1959 18.873 83.3694 19.4161 83.7166 19.7969C84.0638 20.1776 84.5733 20.368 85.2452 20.368C85.9171 20.368 86.4323 20.1776 86.7906 19.7969C87.149 19.4161 87.3281 18.873 87.3281 18.1675V11.1124H90.2006V18.1507C90.2006 19.2034 89.9766 20.0936 89.5287 20.8216C89.0807 21.5495 88.476 22.0982 87.7145 22.4677C86.9642 22.8373 86.1243 23.0221 85.1948 23.0221C84.2653 23.0221 83.431 22.8429 82.6919 22.4845C81.964 22.115 81.3873 21.5663 80.9617 20.8383C80.5362 20.0992 80.3234 19.2034 80.3234 18.1507V11.1124H83.1959Z" fill="#D0D2D8"/>
<path d="M95.72 11.1124V22.9045H92.8476V11.1124H95.72Z" fill="#D0D2D8"/>
<path d="M14.6954 18.2193V32.2962V34L0 25.5874V9.76415L14.6954 18.2193Z" fill="#000005"/>
<path d="M14.6738 17.2803V32.2962V34L29.3691 25.5874V21.1149L14.6738 17.2803Z" fill="#051011"/>
<path d="M14.6954 4.42991V1.70381V0L0 8.41257V12.8851L14.6954 4.42991Z" fill="#546373"/>
<path d="M0 12.8858L14.6954 4.43066V9.92546L4.72808 15.6314L0 12.8858Z" fill="#41505C"/>
<path d="M14.6738 27.1603V32.2962V34L29.3691 25.5874V18.4671L14.6738 27.1603Z" fill="#132628"/>
<path d="M14.6953 17.0168V9.92471L4.72803 15.6306L10.883 19.2103L14.6953 17.0168Z" fill="#1B3142"/>
<path d="M14.6961 17.0169V21.3122L10.8831 19.2107L14.6961 17.0169Z" fill="#000C17"/>
<path d="M14.6731 17.0169V21.3242L18.4861 19.2107L14.6731 17.0169Z" fill="#123B3D"/>
<path d="M0 25.5998V18.5077L8.53357 13.4389L14.6886 17.0185L0 25.5998Z" fill="#0D202F"/>
<path d="M29.3909 25.5804V18.4883L24.6628 15.6113L18.5078 19.1909L29.3909 25.5804Z" fill="#81EFDA"/>
<path d="M29.3909 25.5806L29.3908 18.484L23.2935 22.0105L29.3909 25.5806Z" fill="#95F6E6"/>
<path d="M14.6741 17.0168V9.92471L24.6414 15.6306L18.4863 19.2103L14.6741 17.0168Z" fill="#8AF0DE"/>
<path d="M14.6739 17.0168V9.92471L20.7317 13.3806L14.6739 17.0168Z" fill="#58DAC1"/>
<path d="M29.3691 12.885L14.6738 4.42981V9.9246L24.6411 15.6305L29.3691 12.885Z" fill="#96E4D3"/>
<path d="M29.3696 12.8851L29.3965 18.4905L24.6416 15.6307L29.3696 12.8851Z" fill="#8CD9C8"/>
<path d="M0 8.4273V18.5109L8.53584 13.4266L0 8.4273Z" fill="#33404A"/>
<path d="M25.4646 10.6441L14.6741 4.42981V9.9246L20.7365 13.3897L25.4646 10.6441Z" fill="#68C4B0"/>
<path d="M14.6738 4.42991V1.70381V0L29.3691 8.41257V12.8851L14.6738 4.42991Z" fill="#B7F8EE"/>
<path d="M29.3691 12.8859L25.4713 10.6306L29.3691 8.41251V12.8859Z" fill="#CDFCF6"/>
<path fill-rule="evenodd" clip-rule="evenodd" d="M18.5702 2.21579L14.6994 -6.10352e-05L14.6741 0.0144507V1.68924V4.41534L14.7107 4.43639L18.5702 2.21579Z" fill="#98EEE1"/>
</svg>
